<svg width="200" height="200" viewBox="0 0 200 200" xmlns="http://www.w3.org/2000/svg">
  <defs>
    <linearGradient id="canvasGradient" x1="0%" y1="0%" x2="100%" y2="100%">
      <stop offset="0%" style="stop-color:#4f46e5;stop-opacity:1" />
      <stop offset="50%" style="stop-color:#7c3aed;stop-opacity:1" />
      <stop offset="100%" style="stop-color:#ec4899;stop-opacity:1" />
    </linearGradient>
    <linearGradient id="brushGradient" x1="0%" y1="0%" x2="100%" y2="100%">
      <stop offset="0%" style="stop-color:#f59e0b;stop-opacity:1" />
      <stop offset="100%" style="stop-color:#ef4444;stop-opacity:1" />
    </linearGradient>
  </defs>
  
  <!-- Background circle -->
  <circle cx="100" cy="100" r="95" fill="url(#canvasGradient)" stroke="#ffffff" stroke-width="2"/>
  
  <!-- Canvas/Board representation -->
  <rect x="40" y="50" width="120" height="80" rx="8" ry="8" fill="#ffffff" opacity="0.9"/>
  
  <!-- Drawing strokes on canvas -->
  <path d="M55 70 Q75 65, 95 75 T135 70" stroke="url(#brushGradient)" stroke-width="3" fill="none" stroke-linecap="round"/>
  <path d="M60 85 Q80 90, 100 85 T130 90" stroke="#10b981" stroke-width="3" fill="none" stroke-linecap="round"/>
  <path d="M50 100 Q70 95, 90 105 T140 100" stroke="#3b82f6" stroke-width="3" fill="none" stroke-linecap="round"/>
  
  <!-- Brush/Pen tool -->
  <g transform="translate(140, 40) rotate(45)">
    <rect x="0" y="0" width="4" height="25" fill="url(#brushGradient)" rx="2"/>
    <circle cx="2" cy="27" r="3" fill="#ef4444"/>
  </g>
  
  <!-- Collaboration dots (multiple users) -->
  <circle cx="170" cy="60" r="4" fill="#10b981" opacity="0.8"/>
  <circle cx="175" cy="75" r="4" fill="#3b82f6" opacity="0.8"/>
  <circle cx="165" cy="85" r="4" fill="#f59e0b" opacity="0.8"/>
  
  <!-- Infinite symbol -->
  <g transform="translate(70, 145)">
    <path d="M0 15 Q15 0, 30 15 Q45 30, 60 15 Q45 0, 30 15 Q15 30, 0 15" 
          stroke="#ffffff" stroke-width="3" fill="none" opacity="0.8"/>
  </g>
</svg> 